<?xml version="1.0" encoding="UTF-8" standalone="no"?>
<!-- Created with Inkscape (http://www.inkscape.org/) -->
<svg id="svg7384" xmlns:rdf="http://www.w3.org/1999/02/22-rdf-syntax-ns#" xmlns="http://www.w3.org/2000/svg" height="16" width="16" version="1.1" xmlns:cc="http://creativecommons.org/ns#" xmlns:dc="http://purl.org/dc/elements/1.1/">
 <metadata id="metadata90">
  <rdf:RDF>
   <cc:Work rdf:about="">
    <dc:format>image/svg+xml</dc:format>
    <dc:type rdf:resource="http://purl.org/dc/dcmitype/StillImage"/>
    <dc:title>Gnome Symbolic Icon Theme</dc:title>
   </cc:Work>
  </rdf:RDF>
 </metadata>
 <title id="title9167">Gnome Symbolic Icon Theme</title>
 <g id="layer9" transform="translate(-81 -217)">
  <rect id="rect3743" style="fill:#bebebe" transform="matrix(0,1,1,0,0,0)" height="6" width="2" y="86" x="228"/>
  <path id="path3745" style="block-progression:tb;text-indent:0;color:#bebebe;text-transform:none;fill:#bebebe" d="m86.469 217c-0.49033 0-0.79607 0.22846-1.0312 0.46875-0.23518 0.24029-0.4375 0.52725-0.4375 1v0.53h-1-1v1 12 1h1 10 1v-1-12-1h-1-1v-0.375-0.0312-0.0312c-0.02393-0.4306-0.17023-0.72105-0.40625-1-0.22374-0.26444-0.6267-0.52931-1.1562-0.53125v-0.0312h-0.0625-4.9062zm0.531 2h4v1 1h1 1v10h-8v-10h1 1v-1-1z"/>
 </g>
</svg>
