<?xml version="1.0" encoding="UTF-8" standalone="no"?>
<svg
   id="svg6"
   version="1.1"
   width="20"
   height="20"
   sodipodi:docname="dialog_close_highlight.svg"
   inkscape:version="1.2.2 (b0a8486541, 2022-12-01)"
   xmlns:inkscape="http://www.inkscape.org/namespaces/inkscape"
   xmlns:sodipodi="http://sodipodi.sourceforge.net/DTD/sodipodi-0.dtd"
   xmlns="http://www.w3.org/2000/svg"
   xmlns:svg="http://www.w3.org/2000/svg"
   xmlns:rdf="http://www.w3.org/1999/02/22-rdf-syntax-ns#"
   xmlns:cc="http://creativecommons.org/ns#"
   xmlns:dc="http://purl.org/dc/elements/1.1/">
  <sodipodi:namedview
     id="namedview303"
     pagecolor="#505050"
     bordercolor="#eeeeee"
     borderopacity="1"
     inkscape:showpageshadow="0"
     inkscape:pageopacity="0"
     inkscape:pagecheckerboard="0"
     inkscape:deskcolor="#505050"
     showgrid="false"
     inkscape:zoom="32"
     inkscape:cx="6.5"
     inkscape:cy="9.9375"
     inkscape:window-width="1823"
     inkscape:window-height="1194"
     inkscape:window-x="627"
     inkscape:window-y="116"
     inkscape:window-maximized="0"
     inkscape:current-layer="svg6" />
  <metadata
     id="metadata12">
    <rdf:RDF>
      <cc:Work
         rdf:about="">
        <dc:format>image/svg+xml</dc:format>
        <dc:type
           rdf:resource="http://purl.org/dc/dcmitype/StillImage" />
      </cc:Work>
    </rdf:RDF>
  </metadata>
  <defs
     id="defs10" />
  <g
     id="g293"
     transform="matrix(1.3605442,0,0,1.3605442,-0.88435322,-0.88435322)">
    <rect
       style="opacity:1;fill:#f3f3f3;fill-opacity:1;fill-rule:evenodd;stroke:none;stroke-width:1.07077;stroke-dasharray:none;stroke-opacity:1;paint-order:stroke fill markers"
       id="rect3484"
       width="0.5657047"
       height="7.4574804"
       x="-0.29595706"
       y="7.5849428"
       ry="0.28285092"
       transform="matrix(0.70531651,-0.70889253,0.70792535,0.70628726,0,0)" />
    <rect
       style="fill:#f2f2f2;fill-opacity:1;fill-rule:evenodd;stroke:none;stroke-width:1.07077;stroke-dasharray:none;stroke-opacity:1;paint-order:stroke fill markers"
       id="rect3484-6"
       width="0.5657047"
       height="7.4574804"
       x="11.030864"
       y="-3.7050283"
       ry="0.28285092"
       transform="matrix(0.70858722,0.70562323,-0.70659356,0.70761963,0,0)" />
    <path
       id="path2-3"
       d="M 8,1 C 4.14,1 1,4.14 1,8 c 0,3.86 3.14,7 7,7 3.86,0 7,-3.14 7,-7 C 15,4.14 11.86,1 8,1 Z M 5.4941406,4.9941406 a 0.5,0.5 0 0 1 0.359375,0.1523438 L 8,7.2929688 10.146484,5.1464844 a 0.5,0.5 0 0 1 0.34375,-0.1503906 0.5,0.5 0 0 1 0.363282,0.8574218 L 8.7070312,8 10.853516,10.146484 a 0.50027817,0.50027817 0 1 1 -0.707032,0.707032 L 8,8.7070312 5.8535156,10.853516 A 0.50027817,0.50027817 0 0 1 5.1464844,10.146484 L 7.2929688,8 5.1464844,5.8535156 a 0.5,0.5 0 0 1 0.3476562,-0.859375 z"
       style="line-height:normal;font-variant-ligatures:normal;font-variant-position:normal;font-variant-caps:normal;font-variant-numeric:normal;font-variant-alternates:normal;font-feature-settings:normal;font-variation-settings:normal;text-indent:0;text-align:start;text-decoration:none;text-decoration-line:none;text-decoration-style:solid;text-decoration-color:#000000;text-transform:none;text-orientation:mixed;shape-padding:0;opacity:1;isolation:auto;mix-blend-mode:normal;fill:#777777;fill-opacity:0.747455;stroke:#f2f2f2;stroke-width:0.7;stroke-linecap:butt;stroke-linejoin:miter;stroke-miterlimit:4;stroke-dasharray:none;stroke-dashoffset:0;stroke-opacity:1" />
  </g>
</svg>
